<svg xmlns="http://www.w3.org/2000/svg" id="Ebene_1" viewBox="0 0 323.05 288.28">
    <defs>
        <style>.cls-1{fill:#f28b2d;}.cls-2{fill:#343434;}</style>
    </defs>
    <title>4ALLPORTAL-Logo-mit-Unterzeile-Solid-4c</title>
    <polygon class="cls-1" points="75.45 91.9 44.54 145.44 75.45 198.97 137.27 198.97 168.18 145.44 137.27 91.9 75.45 91.9"/>
    <polygon class="cls-1" points="185.11 156.04 169.95 182.29 185.11 208.55 215.42 208.55 230.58 182.29 215.42 156.04 185.11 156.04"/>
    <polygon class="cls-1" points="137.58 72.56 158.52 36.28 137.58 0 95.69 0 74.74 36.28 95.69 72.56 137.58 72.56"/>
    <polygon class="cls-1" points="247.61 29.15 185.79 29.15 154.88 82.69 185.79 136.23 247.61 136.23 278.52 82.69 247.61 29.15"/>
    <path class="cls-2" d="M25.83,276.15H20.15v11.42H17.58V276.15H0v-1.56l17.76-25.22h2.39v24.51h5.68Zm-8.25-2.27v-14c0-1.74.12-4.85.23-6.58h-.23c-1,1.61-2,3.05-3.11,4.78L3.23,273.88Z" transform="translate(0 0)"/>
    <path class="cls-2" d="M54.28,277H41.19l-3,10.59H31l12.79-39.1H52l12.73,39.1H57.33Zm-1.55-5.44-1.38-4.78c-1.19-4.12-2.39-8.61-3.53-12.91h-.23c-1.08,4.36-2.22,8.79-3.47,12.91l-1.38,4.78Z" transform="translate(0 0)"/>
    <path class="cls-2" d="M70.54,248.47h6.94v33.24h16.2v5.86H70.54Z" transform="translate(0 0)"/>
    <path class="cls-2" d="M101.57,248.47h6.93v33.24h16.2v5.86H101.57Z" transform="translate(0 0)"/>
    <path class="cls-2" d="M133.31,248.17h10.76c8.79,0,14,2.87,14,11,0,7.71-5.26,11.48-14,11.48h-8v16.92h-2.75Zm10,20.15c8.07,0,11.9-2.69,11.9-9.15,0-6.64-3.89-8.67-11.9-8.67h-7.29v17.82Z" transform="translate(0 0)"/>
    <path class="cls-2" d="M164.87,267.72c0-12.44,6.76-20.27,16.26-20.27s16.21,7.83,16.21,20.27-6.76,20.56-16.21,20.56S164.87,280.21,164.87,267.72Zm29.6,0c0-10.88-5.38-17.76-13.34-17.76s-13.39,6.88-13.39,17.76,5.38,18,13.39,18S194.47,278.66,194.47,267.72Z" transform="translate(0 0)"/>
    <path class="cls-2" d="M229,287.57l-10.64-18.12H210v18.12H207.2v-39.4h11.24c7.83,0,13,2.87,13,10.4,0,6.28-3.95,9.87-10.1,10.7l10.82,18.3Zm-11.24-20.39c7,0,10.82-2.81,10.82-8.61s-3.83-8.07-10.82-8.07H210v16.68Z" transform="translate(0 0)"/>
    <path class="cls-2" d="M248.75,250.56H236.19v-2.39H264v2.39H251.5v37h-2.75Z" transform="translate(0 0)"/>
    <path class="cls-2" d="M287.6,274.05H272l-4.6,13.52h-2.81l13.93-39.4h2.75l13.87,39.4h-2.93Zm-.77-2.33-2.51-7.35c-1.56-4.66-3-8.79-4.37-13.63h-.24c-1.37,4.84-2.75,9-4.36,13.63l-2.51,7.35Z" transform="translate(0 0)"/>
    <path class="cls-2" d="M302.19,248.17h2.75v37h18.11v2.4H302.19Z" transform="translate(0 0)"/>
</svg>